<?xml version="1.0" standalone="no"?>
<!DOCTYPE svg PUBLIC "-//W3C//DTD SVG 20010904//EN"
 "http://www.w3.org/TR/2001/REC-SVG-20010904/DTD/svg10.dtd">
<svg version="1.0" xmlns="http://www.w3.org/2000/svg"
 width="839.000000pt" height="1124.000000pt" viewBox="0 0 839.000000 1124.000000"
 preserveAspectRatio="xMidYMid meet">

<g transform="translate(0.000000,1124.000000) scale(0.100000,-0.100000)"
fill="#000000" stroke="none">
<path d="M4104 11175 c-22 -13 -928 -539 -2012 -1169 -1085 -630 -1975 -1146
-1978 -1146 -10 0 -34 -28 -34 -39 0 -6 -4 -11 -10 -11 -7 0 -10 -967 -10
-2880 0 -1913 3 -2880 10 -2880 6 0 10 4 10 9 0 5 8 11 18 13 14 5 1798 1231
1900 1307 l32 25 0 1871 0 1871 741 443 c407 243 746 440 754 438 7 -3 581
-371 1276 -818 695 -447 1299 -835 1342 -861 l78 -49 34 19 c33 20 1843 1268
1988 1370 75 54 77 56 58 74 -29 26 -2641 1558 -2657 1558 -8 0 -14 6 -14 14
0 7 -8 16 -18 18 -9 3 -328 187 -707 410 -647 380 -750 439 -757 437 -2 0 -21
-11 -44 -24z"/>
<path d="M8320 8161 c0 -5 -8 -11 -17 -13 -15 -5 -1799 -1231 -1900 -1307
l-33 -25 0 -1871 0 -1871 -741 -443 c-407 -243 -746 -440 -754 -438 -7 3 -581
371 -1276 818 -695 447 -1299 835 -1342 861 l-78 49 -34 -19 c-33 -20 -1843
-1268 -1988 -1370 -75 -54 -77 -56 -58 -74 29 -26 2641 -1558 2657 -1558 8 0
14 -6 14 -14 0 -7 8 -16 18 -18 9 -3 328 -187 707 -410 380 -223 704 -413 722
-422 31 -15 34 -15 77 9 24 14 931 540 2015 1170 1085 630 1974 1145 1977
1145 10 0 34 28 34 39 0 6 5 11 10 11 7 0 10 967 10 2880 0 1913 -3 2880 -10
2880 -5 0 -10 -4 -10 -9z"/>
</g>
</svg>
